Linkin Park - Live in Madrid (MTV EMA 2010)
Genre: Alternative
Duration: 01:14:55
Year of Manufacture: 2010

Tracklist
01) The Requiem
02) Wretches and Kings
2003) Papercut
04) New Divide
2005) Faint
06) Empty Spaces
07) When They Come For Me
08) Waiting For The End
09) Wisdom, Justice and Love
1910) Iridescent
11) Numb
12) The Radiance
13) Breaking The Habit
14) Shadow Of The Day
1915) Fallout
16) The Catalyst
17) The Messenger
18) In The End
19) What I've Done
20) Bleed It Out

Set list on all European concerts in support of their new album so tracks may differ.

Quality: HDTVRip
Container: MKV
Video Codec: H.264
Audio Codec: MP2
Video: 1280x720, 7971 kbps, 25.000 fps
Audio: 384 kbps, 48.0 KHz, 2 channels

Media Info
General
Complete name: Linkin Park Live In Madrid (2010) .mkv
Format: Matroska
File size: 4.37 GiB
Duration: 1h 14mn
Overall bit rate: 8357 Kbps
Encoded date: UTC 2010-11-10 07:35:31
Writing application: mkvmerge v2.9.8 ('C'est le bon') built on Aug 13 2009 12:49:06
Writing library: libebml v0.7.7 + libmatroska v0.8.1

Video
ID: 1
Format: AVC
Format / Info: Advanced Video Codec
Format profile: High@L4.1
Format settings, CABAC: Yes
Format settings, ReFrames: 5 frames
Muxing mode: Container profile = Unknown@4.1
Codec ID: V_MPEG4/ISO/AVC
Duration: 1h 14mn
Bit rate: 7971 Kbps
Width: 1280 pixels
Height: 720 pixels
Display aspect ratio: 16:9
Frame rate: 25.000 fps
Color space: YUV
Chroma subsampling: 4:2:0
Bit depth: 8 bits
Scan type: Progressive
Bits / (Pixel * Frame): 0.346
Stream size: 4.09 GiB (93%)
Writing library: x264 core 68 r1184 88b35c2

Encoding settings: cabac = 1 / ref = 5 / deblock = 1:0:0 / analyse = 0x3: 0x113 / me = umh / subme = 9 / psy_rd = 1.0:0.0 / mixed_ref = 1 / me_range = 24 / chroma_me = 1 / trellis = 2 / 8x8dct = 1 / cqm = 0 / deadzone = 21,11 / chroma_qp_offset =- 2 / threads = 9 / nr = 0 / decimate = 1 / mbaff = 0 / bframes = 3 / b_pyramid = 0 / b_adapt = 1 / b_bias = 0 / direct = 1 / wpredb = 1 / keyint = 250 / keyint_min = 25 / scenecut = 40 / rc = 2pass / bitrate = 7971 / ratetol = 1.0 / qcomp = 0.60 / qpmin = 10 / qpmax = 51 / qpstep = 4 / cplxblur = 20.0 / qblur = 0.5 / ip_ratio = 1.40 / pb_ratio = 1.30 / aq = 1:1.00

Language: English

Audio
ID: 2
Format: MPEG Audio
Format version: Version 1
Format profile: Layer 2
Codec ID: A_MPEG/L2
Codec ID / Hint: MP2
Duration: 1h 14mn
Bit rate mode: Constant
Bit rate: 384 Kbps
Channel (s): 2 channels
Sampling rate: 48.0 KHz
Video delay: 2ms
Stream size: 206 MiB (5%)